# xmcd
#
# Track frame offsets: 
#        150
#        15195
#        29469
#        47430
#        61575
#        77941
#        92619
#        107431
#        120383
#        134731
#        150508
#        166550
#        183338
#        198773
#        215212
#        232515
#        248565
#        270446
#
# Disc length: 3805 seconds
#
# Revision: 0
# Processed by: cddbd v1.5.2PL0 Copyright (c) Steve Scherf et al.
# Submitted via: ExactAudioCopy v1.3
#
DISCID=cd0edb12
DTITLE=Various Artist - Beaut Ute Anthems 2012
DYEAR=2012
DGENRE=Country
TTITLE0=Lee Kernaghan - Dirt
TTITLE1=Blake Shelton - Good Ole Boys
TTITLE2=McAlister Kemp - White Line
TTITLE3=Jasmine Rae - Don't Wanna Talk About It
TTITLE4=Pete Murray - Free
TTITLE5=The Living End - For Another Day
TTITLE6=Brooks &? Dunn - Cowboy Town
TTITLE7=Randy Houser - Boots On
TTITLE8=Dierks Bentley - Am I The Only One
TTITLE9=Brad Paisley - Mud On The Tires
TTITLE10=Peter McWhirter - Get Away
TTITLE11=Jetty Road - Road To Nowhere
TTITLE12=Trace Adkins - Brown Chicken Brown Cow
TTITLE13=Craig Morrison - Just Another Sundown
TTITLE14=Corey Colum - Outback Justice
TTITLE15=Casey James - Drive
TTITLE16=The Wolfe Brothers - Drivin Fast Livin Easy
TTITLE17=8 Ball Aitken - Hands On Top Of The Wheel
EXTD=
EXTT0=
EXTT1=
EXTT2=
EXTT3=
EXTT4=
EXTT5=
EXTT6=
EXTT7=
EXTT8=
EXTT9=
EXTT10=
EXTT11=
EXTT12=
EXTT13=
EXTT14=
EXTT15=
EXTT16=
EXTT17=
PLAYORDER=
